<svg width="41" height="41" viewBox="0 0 41 41" fill="none" xmlns="http://www.w3.org/2000/svg">
<path d="M17.5949 26.1797C18.0845 26.0852 18.5486 25.8886 18.957 25.6025C19.3654 25.3165 19.7088 24.9475 19.9648 24.5197C20.352 23.903 20.5522 23.1874 20.5413 22.4594C20.5595 21.7943 20.3853 21.1382 20.0396 20.5698C19.683 20.0362 19.1591 19.6362 18.5504 19.433C18.9249 19.2575 19.2592 19.0067 19.5325 18.6964C19.9526 18.1569 20.1648 17.4844 20.1303 16.8015C20.1504 16.0983 19.9426 15.4074 19.5378 14.8319C18.8831 13.9423 17.7693 13.4833 16.1965 13.4548H9.96216V26.3558H15.7855C16.3931 26.3591 16.9994 26.3001 17.5949 26.1797V26.1797ZM12.5349 15.6966H15.3371C15.8535 15.6832 16.3687 15.7516 16.8637 15.8994C17.0921 15.9967 17.283 16.1651 17.408 16.3796C17.533 16.594 17.5855 16.8431 17.5576 17.0897C17.5788 17.3089 17.5404 17.5298 17.4464 17.729C17.3525 17.9282 17.2065 18.0983 17.0238 18.2213C16.6062 18.4511 16.1336 18.5618 15.6574 18.5416H12.5242L12.5349 15.6966ZM12.5349 24.114V20.6766H15.7054C16.1463 20.6619 16.5857 20.7363 16.9971 20.8955C17.2612 21.0113 17.4824 21.2069 17.6298 21.4548C17.7772 21.7027 17.8434 21.9905 17.8191 22.2779C17.856 22.5993 17.7946 22.9243 17.6431 23.2101C17.4916 23.496 17.2571 23.7292 16.9704 23.8792C16.556 24.048 16.1097 24.1245 15.6627 24.1034L12.5349 24.114Z" fill="#EDE9F0"/>
<path d="M22.7244 25.5071C23.6732 26.2803 24.8633 26.6958 26.0871 26.6814C26.7499 26.7201 27.4133 26.6157 28.0322 26.3753C28.6511 26.1349 29.211 25.7642 29.674 25.2883C30.1606 24.829 30.4847 24.2239 30.5974 23.5642H28.062C27.9284 23.8156 27.7471 24.0386 27.5282 24.2208C27.1312 24.5247 26.64 24.6795 26.1405 24.6584C25.6587 24.6706 25.1832 24.5467 24.7687 24.3008C24.4434 24.0782 24.1808 23.7757 24.006 23.4224C23.8312 23.0691 23.7502 22.6769 23.7706 22.2832H30.7094C30.7308 21.6521 30.7022 21.0203 30.624 20.3937C30.5252 19.6862 30.266 19.0107 29.8661 18.4188C29.4615 17.8018 28.8894 17.313 28.2168 17.0097C27.5099 16.7026 26.7456 16.5498 25.975 16.5613C25.3462 16.537 24.7191 16.6419 24.1324 16.8696C23.5458 17.0973 23.0121 17.4429 22.5643 17.885C21.6889 18.7657 21.2512 20.0201 21.2512 21.6854C21.2726 23.4521 21.753 24.7225 22.7244 25.5071ZM24.5072 19.1661C24.7054 18.9795 24.9399 18.8358 25.1961 18.744C25.4524 18.6522 25.7248 18.6141 25.9964 18.6323C26.5383 18.621 27.0651 18.8112 27.4749 19.1661C27.6828 19.3582 27.8493 19.5908 27.964 19.8497C28.0788 20.1085 28.1394 20.3881 28.1421 20.6712H23.872C23.913 20.1135 24.1362 19.5846 24.5072 19.1661V19.1661Z" fill="#EDE9F0"/>
<path d="M28.6333 14.1968H23.0288V15.4992H28.6333V14.1968Z" fill="#EDE9F0"/>
<path d="M20.4399 0.11084C16.4843 0.11084 12.6175 1.28381 9.32854 3.48144C6.03956 5.67907 3.47611 8.80265 1.96236 12.4572C0.448609 16.1117 0.0525398 20.133 0.824244 24.0126C1.59595 27.8923 3.50076 31.4559 6.29781 34.253C9.09486 37.05 12.6585 38.9548 16.5381 39.7265C20.4178 40.4982 24.4391 40.1022 28.0936 38.5884C31.7481 37.0747 34.8717 34.5112 37.0693 31.2222C39.267 27.9333 40.4399 24.0665 40.4399 20.1108C40.4343 14.8082 38.3253 9.72444 34.5758 5.97494C30.8263 2.22544 25.7425 0.116491 20.4399 0.11084V0.11084ZM20.4399 37.5488C16.991 37.5488 13.6196 36.5261 10.7519 34.61C7.88429 32.6939 5.64923 29.9704 4.32939 26.784C3.00955 23.5977 2.66421 20.0915 3.33706 16.7089C4.00991 13.3262 5.67072 10.2191 8.10946 7.78035C10.5482 5.34161 13.6553 3.6808 17.038 3.00795C20.4206 2.3351 23.9268 2.68044 27.1132 4.00028C30.2995 5.32012 33.023 7.55517 34.9391 10.4228C36.8552 13.2905 37.8779 16.6619 37.8779 20.1108C37.8708 24.7325 36.031 29.1627 32.762 32.4297C29.493 35.6968 25.0616 37.5339 20.4399 37.5381V37.5488Z" fill="#EDE9F0"/>
</svg>
