<svg width="41" height="41" viewBox="0 0 41 41" fill="none" xmlns="http://www.w3.org/2000/svg">
<path d="M17.5949 26.8198C18.0845 26.7254 18.5486 26.5287 18.957 26.2427C19.3654 25.9566 19.7088 25.5876 19.9648 25.1598C20.352 24.5432 20.5522 23.8275 20.5413 23.0995C20.5595 22.4345 20.3853 21.7783 20.0396 21.21C19.683 20.6763 19.1591 20.2764 18.5504 20.0731C18.9249 19.8976 19.2592 19.6469 19.5325 19.3365C19.9526 18.797 20.1648 18.1245 20.1303 17.4416C20.1504 16.7384 19.9426 16.0475 19.5378 15.4721C18.8831 14.5825 17.7693 14.1234 16.1965 14.095H9.96216V26.996H15.7855C16.3931 26.9993 16.9994 26.9402 17.5949 26.8198ZM12.5349 16.3368H15.3371C15.8535 16.3233 16.3687 16.3918 16.8637 16.5396C17.0921 16.6368 17.283 16.8052 17.408 17.0197C17.533 17.2341 17.5855 17.4832 17.5576 17.7299C17.5788 17.9491 17.5404 18.17 17.4464 18.3691C17.3525 18.5683 17.2065 18.7384 17.0238 18.8614C16.6062 19.0912 16.1336 19.202 15.6574 19.1817H12.5242L12.5349 16.3368ZM12.5349 24.7542V21.3167H15.7054C16.1463 21.302 16.5857 21.3764 16.9971 21.5356C17.2612 21.6515 17.4824 21.8471 17.6298 22.095C17.7772 22.3429 17.8434 22.6306 17.8191 22.918C17.856 23.2394 17.7946 23.5644 17.6431 23.8503C17.4916 24.1361 17.2571 24.3694 16.9704 24.5193C16.556 24.6882 16.1097 24.7647 15.6627 24.7435L12.5349 24.7542Z" fill="#323232"/>
<path d="M22.7244 26.1472C23.6732 26.9204 24.8633 27.336 26.0871 27.3215C26.7499 27.3602 27.4133 27.2558 28.0322 27.0155C28.6511 26.7751 29.211 26.4043 29.674 25.9284C30.1606 25.4691 30.4847 24.864 30.5974 24.2044H28.062C27.9284 24.4558 27.7471 24.6788 27.5282 24.8609C27.1312 25.1648 26.64 25.3197 26.1405 25.2986C25.6587 25.3108 25.1832 25.1868 24.7687 24.941C24.4434 24.7183 24.1808 24.4159 24.006 24.0626C23.8312 23.7093 23.7502 23.317 23.7706 22.9233H30.7094C30.7308 22.2922 30.7022 21.6604 30.624 21.0338C30.5252 20.3264 30.266 19.6508 29.8661 19.0589C29.4615 18.442 28.8894 17.9532 28.2168 17.6498C27.5099 17.3427 26.7456 17.1899 25.975 17.2014C25.3462 17.1771 24.7191 17.282 24.1324 17.5097C23.5458 17.7374 23.0121 18.083 22.5643 18.5252C21.6889 19.4059 21.2512 20.6602 21.2512 22.3255C21.2726 24.0923 21.753 25.3626 22.7244 26.1472ZM24.5072 19.8062C24.7054 19.6197 24.9399 19.476 25.1961 19.3841C25.4524 19.2923 25.7248 19.2543 25.9964 19.2724C26.5383 19.2611 27.0651 19.4513 27.4749 19.8062C27.6828 19.9983 27.8493 20.231 27.964 20.4898C28.0788 20.7487 28.1394 21.0283 28.1421 21.3114H23.872C23.913 20.7536 24.1362 20.2247 24.5072 19.8062Z" fill="#323232"/>
<path d="M28.6333 14.8369H23.0288V16.1393H28.6333V14.8369Z" fill="#323232"/>
<path d="M20.4399 0.750977C16.4843 0.750977 12.6175 1.92395 9.32854 4.12158C6.03956 6.3192 3.47611 9.44279 1.96236 13.0973C0.448609 16.7518 0.0525398 20.7732 0.824244 24.6528C1.59595 28.5324 3.50076 32.0961 6.29781 34.8931C9.09486 37.6902 12.6585 39.595 16.5381 40.3667C20.4178 41.1384 24.4391 40.7423 28.0936 39.2286C31.7481 37.7148 34.8717 35.1514 37.0693 31.8624C39.267 28.5734 40.4399 24.7066 40.4399 20.751C40.4343 15.4484 38.3253 10.3646 34.5758 6.61507C30.8263 2.86557 25.7425 0.756628 20.4399 0.750977ZM20.4399 38.1889C16.991 38.1889 13.6196 37.1662 10.7519 35.2501C7.88429 33.334 5.64923 30.6105 4.32939 27.4242C3.00955 24.2378 2.66421 20.7316 3.33706 17.349C4.00991 13.9664 5.67072 10.8592 8.10946 8.42049C10.5482 5.98175 13.6553 4.32093 17.038 3.64809C20.4206 2.97524 23.9268 3.32058 27.1132 4.64042C30.2995 5.96025 33.023 8.19531 34.9391 11.063C36.8552 13.9306 37.8779 17.3021 37.8779 20.751C37.8708 25.3727 36.031 29.8028 32.762 33.0699C29.493 36.3369 25.0616 38.174 20.4399 38.1782V38.1889Z" fill="#323232"/>
</svg>
