<svg width="41" height="41" viewBox="0 0 41 41" fill="none" xmlns="http://www.w3.org/2000/svg">
<path d="M20.5118 8.53613C18.1893 8.53613 15.9189 9.22483 13.9879 10.5151C12.0568 11.8054 10.5517 13.6394 9.66291 15.7851C8.77413 17.9308 8.54159 20.2919 8.99468 22.5697C9.44778 24.8476 10.5662 26.94 12.2084 28.5822C13.8507 30.2245 15.943 31.3428 18.2209 31.7959C20.4987 32.249 22.8598 32.0165 25.0055 31.1277C27.1512 30.2389 28.9852 28.7338 30.2755 26.8028C31.5658 24.8717 32.2545 22.6013 32.2545 20.2789C32.2545 17.1645 31.0173 14.1777 28.8151 11.9755C26.6129 9.77331 23.6261 8.53613 20.5118 8.53613ZM20.5118 10.5804C22.6536 10.5815 24.7342 11.2951 26.4258 12.6087C25.1377 14.2104 23.457 15.4516 21.5473 16.2116C20.5338 14.3553 19.3924 12.5718 18.1312 10.874C18.9091 10.6757 19.709 10.5771 20.5118 10.5804ZM16.1349 11.648C17.414 13.316 18.57 15.075 19.5937 16.9108C16.8241 17.6573 13.9644 18.0165 11.0962 17.9784C11.4305 16.6211 12.0536 15.352 12.9232 14.2577C13.7928 13.1633 14.8883 12.2695 16.1349 11.6373V11.648ZM10.7973 20.2895C10.7973 20.2095 10.7973 20.1241 10.7973 20.044C14.0894 20.1042 17.3717 19.6669 20.5331 18.747C20.7626 19.2113 20.9815 19.681 21.1896 20.1508C17.8076 21.2379 14.9176 23.4834 13.0284 26.4918C11.583 24.7451 10.797 22.5461 10.808 20.2789L10.7973 20.2895ZM20.5118 29.9773C18.3525 29.976 16.2557 29.2527 14.555 27.9223C16.4819 24.8959 18.9425 22.9316 21.9903 22.0189C22.8949 24.3815 23.5654 26.8271 23.9919 29.3208C22.8829 29.7544 21.7026 29.9771 20.5118 29.9773ZM25.8974 28.3386C25.4668 26.0398 24.8382 23.7824 24.0186 21.5919C26.0373 21.3381 28.0834 21.403 30.0821 21.7841C29.8749 23.107 29.3962 24.3729 28.676 25.5018C27.9559 26.6308 27.0098 27.5985 25.8974 28.344V28.3386ZM23.2286 19.6597C22.9884 19.1259 22.7429 18.5548 22.476 18.0157C24.5877 17.1489 26.4538 15.776 27.9097 14.0179C29.2656 15.625 30.0618 17.6296 30.1782 19.7291C27.8832 19.3202 25.536 19.2985 23.2339 19.665L23.2286 19.6597Z" fill="#323232"/>
<path d="M20.72 0.470947C16.7644 0.470947 12.8976 1.64393 9.60858 3.84155C6.31959 6.03918 3.75614 9.16275 2.24239 12.8173C0.728638 16.4718 0.332569 20.4931 1.10427 24.3727C1.87598 28.2524 3.7808 31.816 6.57785 34.6131C9.3749 37.4101 12.9386 39.3149 16.8182 40.0866C20.6978 40.8583 24.7191 40.4623 28.3736 38.9485C32.0282 37.4348 35.1517 34.8713 37.3494 31.5823C39.547 28.2934 40.72 24.4266 40.72 20.4709C40.7143 15.1683 38.6054 10.0846 34.8559 6.33505C31.1064 2.58555 26.0226 0.476599 20.72 0.470947ZM20.72 37.9036C17.2708 37.9036 13.8992 36.8807 11.0314 34.9644C8.16365 33.048 5.92859 30.3243 4.60891 27.1376C3.28923 23.9509 2.94421 20.4444 3.61749 17.0617C4.29077 13.6789 5.9521 10.5718 8.39138 8.13323C10.8306 5.6947 13.9383 4.03431 17.3213 3.36207C20.7043 2.68983 24.2106 3.03592 27.3969 4.35657C30.5832 5.67723 33.3062 7.91313 35.2217 10.7815C37.1372 13.6498 38.159 17.0218 38.1579 20.4709C38.1523 25.0935 36.3131 29.5251 33.0439 32.7933C29.7747 36.0615 25.3426 37.8993 20.72 37.9036Z" fill="#323232"/>
</svg>
