<svg width="41" height="41" viewBox="0 0 41 41" fill="none" xmlns="http://www.w3.org/2000/svg">
<path d="M20.5118 8.896C18.1893 8.896 15.9189 9.5847 13.9879 10.875C12.0568 12.1653 10.5517 13.9993 9.66291 16.145C8.77413 18.2907 8.54159 20.6517 8.99468 22.9296C9.44778 25.2075 10.5662 27.2998 12.2084 28.9421C13.8507 30.5843 15.943 31.7027 18.2209 32.1558C20.4987 32.6089 22.8598 32.3764 25.0055 31.4876C27.1512 30.5988 28.9852 29.0937 30.2755 27.1626C31.5658 25.2315 32.2545 22.9612 32.2545 20.6387C32.2545 17.5244 31.0173 14.5375 28.8151 12.3354C26.6129 10.1332 23.6261 8.896 20.5118 8.896V8.896ZM20.5118 10.9403C22.6536 10.9414 24.7342 11.6549 26.4258 12.9686C25.1377 14.5703 23.457 15.8115 21.5473 16.5715C20.5338 14.7151 19.3924 12.9316 18.1312 11.2339C18.9091 11.0356 19.709 10.937 20.5118 10.9403V10.9403ZM16.1349 12.0078C17.414 13.6759 18.57 15.4348 19.5937 17.2707C16.8241 18.0171 13.9644 18.3764 11.0962 18.3382C11.4305 16.981 12.0536 15.7119 12.9232 14.6175C13.7928 13.5232 14.8883 12.6294 16.1349 11.9971V12.0078ZM10.7973 20.6494C10.7973 20.5693 10.7973 20.4839 10.7973 20.4039C14.0894 20.4641 17.3717 20.0268 20.5331 19.1068C20.7626 19.5712 20.9815 20.0409 21.1896 20.5106C17.8076 21.5977 14.9176 23.8432 13.0284 26.8517C11.583 25.105 10.797 22.906 10.808 20.6387L10.7973 20.6494ZM20.5118 30.3371C18.3525 30.3359 16.2557 29.6125 14.555 28.2822C16.4819 25.2557 18.9425 23.2915 21.9903 22.3788C22.8949 24.7413 23.5654 27.187 23.9919 29.6806C22.8829 30.1143 21.7026 30.337 20.5118 30.3371V30.3371ZM25.8974 28.6985C25.4668 26.3996 24.8382 24.1423 24.0186 21.9518C26.0373 21.698 28.0834 21.7629 30.0821 22.1439C29.8749 23.4669 29.3962 24.7327 28.676 25.8617C27.9559 26.9906 27.0098 27.9583 25.8974 28.7038V28.6985ZM23.2286 20.0196C22.9884 19.4858 22.7429 18.9147 22.476 18.3756C24.5877 17.5088 26.4538 16.1358 27.9097 14.3777C29.2656 15.9848 30.0618 17.9895 30.1782 20.0889C27.8832 19.68 25.536 19.6584 23.2339 20.0249L23.2286 20.0196Z" fill="#EDE9F0"/>
<path d="M20.72 0.830811C16.7644 0.830811 12.8976 2.00379 9.60858 4.20142C6.31959 6.39905 3.75614 9.52261 2.24239 13.1771C0.728638 16.8317 0.332569 20.853 1.10427 24.7326C1.87598 28.6122 3.7808 32.1759 6.57785 34.9729C9.3749 37.77 12.9386 39.6748 16.8182 40.4465C20.6978 41.2182 24.7191 40.8221 28.3736 39.3084C32.0282 37.7946 35.1517 35.2312 37.3494 31.9422C39.547 28.6532 40.72 24.7864 40.72 20.8308C40.7143 15.5282 38.6054 10.4444 34.8559 6.69492C31.1064 2.94541 26.0226 0.836462 20.72 0.830811V0.830811ZM20.72 38.2634C17.2708 38.2634 13.8992 37.2406 11.0314 35.3242C8.16365 33.4079 5.92859 30.6841 4.60891 27.4974C3.28923 24.3108 2.94421 20.8043 3.61749 17.4215C4.29077 14.0388 5.9521 10.9316 8.39138 8.49309C10.8306 6.05456 13.9383 4.39418 17.3213 3.72193C20.7043 3.04969 24.2106 3.39578 27.3969 4.71644C30.5832 6.03709 33.3062 8.27299 35.2217 11.1414C37.1372 14.0097 38.159 17.3817 38.1579 20.8308C38.1523 25.4534 36.3131 29.885 33.0439 33.1532C29.7747 36.4213 25.3426 38.2592 20.72 38.2634V38.2634Z" fill="#EDE9F0"/>
</svg>
