<svg width="33" height="32" viewBox="0 0 33 32" fill="none" xmlns="http://www.w3.org/2000/svg">
<path d="M9.66906 11.8879H12.7264V21.7091H9.66906V11.8879ZM11.1977 7.00293C11.5482 7.00378 11.8906 7.10853 12.1815 7.30395C12.4725 7.49937 12.6989 7.77668 12.8323 8.10081C12.9656 8.42494 12.9999 8.78133 12.9307 9.12491C12.8615 9.4685 12.6919 9.78385 12.4435 10.0311C12.1951 10.2783 11.8789 10.4463 11.535 10.5139C11.1911 10.5814 10.8349 10.5455 10.5114 10.4106C10.1879 10.2757 9.91169 10.0479 9.71767 9.75598C9.52365 9.46409 9.42055 9.12123 9.42139 8.77075C9.42252 8.3015 9.60972 7.85186 9.94193 7.52045C10.2741 7.18905 10.7242 7.00293 11.1935 7.00293H11.1977ZM14.6394 21.7176H17.6968V16.854C17.6968 15.573 17.9402 14.3304 19.5287 14.3304C21.1171 14.3304 21.1171 15.7993 21.1171 16.9394V21.7176H24.1703V16.3288C24.1703 13.6771 23.6023 11.6317 20.5065 11.6317C19.9245 11.6129 19.3483 11.7523 18.8392 12.035C18.3302 12.3177 17.9073 12.7332 17.6157 13.2373H17.5772V11.8922H14.6437L14.6394 21.7176Z" fill="#323232"/>
<path d="M16.8001 0C13.6356 0 10.5421 0.938377 7.91093 2.69648C5.27974 4.45458 3.22899 6.95345 2.01798 9.87706C0.806982 12.8007 0.490128 16.0177 1.10749 19.1214C1.72485 22.2251 3.24871 25.0761 5.48635 27.3137C7.72399 29.5513 10.5749 31.0752 13.6786 31.6926C16.7823 32.3099 19.9994 31.9931 22.923 30.7821C25.8466 29.5711 28.3455 27.5203 30.1036 24.8891C31.8617 22.2579 32.8 19.1645 32.8 16C32.7955 11.7579 31.1084 7.69088 28.1088 4.69128C25.1092 1.69168 21.0421 0.00452127 16.8001 0V0ZM16.8001 29.9504C14.0407 29.9512 11.3432 29.1337 9.04848 27.6014C6.7538 26.069 4.96508 23.8905 3.90856 21.3415C2.85203 18.7925 2.57516 15.9874 3.11296 13.281C3.65075 10.5747 4.97906 8.08853 6.92988 6.13711C8.8807 4.18569 11.3664 2.85662 14.0726 2.318C16.7789 1.77938 19.584 2.05539 22.1334 3.11113C24.6827 4.16688 26.8617 5.95493 28.3948 8.24915C29.9279 10.5434 30.7461 13.2407 30.7461 16C30.7394 19.6963 29.2677 23.2391 26.6537 25.8524C24.0396 28.4656 20.4963 29.9362 16.8001 29.9418V29.9504Z" fill="#323232"/>
</svg>
