<svg width="33" height="32" viewBox="0 0 33 32" fill="none" xmlns="http://www.w3.org/2000/svg">
<path d="M24.7559 10.8458C24.2171 11.0734 23.6519 11.2327 23.0735 11.3197C23.3425 11.277 23.7268 10.7903 23.8848 10.5938C24.1289 10.2947 24.3156 9.95306 24.4356 9.58609C24.4356 9.5562 24.457 9.52204 24.4356 9.50069C24.4218 9.49321 24.4064 9.4893 24.3908 9.4893C24.3751 9.4893 24.3597 9.49321 24.3459 9.50069C23.7222 9.8333 23.0595 10.0872 22.3732 10.2565C22.3491 10.2643 22.3233 10.2648 22.299 10.2579C22.2747 10.2511 22.253 10.2372 22.2365 10.2181C22.1825 10.1555 22.124 10.097 22.0614 10.043C21.7773 9.79626 21.454 9.59855 21.1049 9.45799C20.6412 9.26814 20.1403 9.18637 19.6403 9.21886C19.1545 9.25416 18.6809 9.38781 18.2483 9.61171C17.8163 9.83954 17.4344 10.1517 17.1252 10.5298C16.8062 10.9238 16.5774 11.3829 16.4548 11.8749C16.3496 12.3405 16.3379 12.8224 16.4207 13.2925C16.4207 13.3694 16.4207 13.3822 16.3523 13.3694C13.6408 12.968 11.3905 11.9944 9.56719 9.91489C9.48606 9.82521 9.44335 9.82521 9.3793 9.91489C8.5808 11.1105 8.9523 13.0363 9.96431 13.98C10.101 14.1038 10.2376 14.2319 10.3913 14.3472C9.93447 14.3121 9.48901 14.1873 9.0804 13.98C9.00354 13.9288 8.96511 13.98 8.95657 14.0483C8.95124 14.1782 8.95839 14.3084 8.97791 14.4369C9.05759 15.0467 9.29703 15.6245 9.67197 16.112C10.0469 16.5994 10.544 16.979 11.113 17.2125C11.2503 17.2714 11.3934 17.3158 11.54 17.3448C11.1179 17.4277 10.6852 17.4407 10.2589 17.3833C10.165 17.3833 10.1308 17.4131 10.165 17.5028C10.7329 19.04 11.9499 19.5012 12.8637 19.7617C12.9875 19.783 13.1071 19.783 13.2309 19.8129C13.2309 19.8129 13.2309 19.8129 13.2309 19.8343C12.9277 20.2955 11.8773 20.6371 11.3905 20.8079C10.4937 21.1285 9.53802 21.2508 8.58934 21.1665C8.43989 21.1452 8.41 21.1452 8.3673 21.1665C8.3246 21.1879 8.3673 21.2306 8.41 21.269C8.60215 21.3929 8.7943 21.5039 8.995 21.6149C9.58886 21.9324 10.2161 22.1831 10.8653 22.3622C14.2258 23.2888 18.0134 22.6098 20.537 20.099C22.5183 18.1305 23.2144 15.4019 23.2144 12.6947C23.2144 12.588 23.3382 12.5324 23.4151 12.4727C23.9267 12.0842 24.3797 11.624 24.7601 11.1062C24.8222 11.0303 24.862 10.9387 24.8754 10.8415V10.8415C24.8498 10.8031 24.8199 10.8159 24.7559 10.8458Z" fill="#323232"/>
<path d="M16.6001 0C13.4356 0 10.3422 0.938384 7.71098 2.69649C5.0798 4.45459 3.02904 6.95344 1.81803 9.87706C0.607032 12.8007 0.290176 16.0177 0.90754 19.1214C1.5249 22.2251 3.04876 25.0761 5.2864 27.3137C7.52404 29.5513 10.375 31.0752 13.4787 31.6925C16.5824 32.3099 19.7994 31.9931 22.723 30.7821C25.6466 29.5711 28.1455 27.5203 29.9036 24.8891C31.6617 22.2579 32.6001 19.1645 32.6001 16C32.5956 11.7579 30.9084 7.69088 27.9088 4.69128C24.9092 1.69168 20.8422 0.00452127 16.6001 0V0ZM16.6001 29.9461C13.8408 29.9461 11.1435 29.1278 8.84925 27.5947C6.55504 26.0616 4.76699 23.8826 3.71125 21.3333C2.6555 18.784 2.37949 15.9788 2.91811 13.2726C3.45674 10.5664 4.7858 8.08064 6.73722 6.12982C8.68864 4.179 11.1748 2.8507 13.8811 2.3129C16.5875 1.77511 19.3926 2.05198 21.9416 3.1085C24.4906 4.16503 26.6691 5.95374 28.2015 8.24843C29.7338 10.5431 30.5513 13.2407 30.5505 16C30.5459 19.6981 29.0746 23.2433 26.4592 25.8579C23.8439 28.4724 20.2982 29.9427 16.6001 29.9461V29.9461Z" fill="#323232"/>
</svg>
