<svg width="33" height="32" viewBox="0 0 33 32" fill="none" xmlns="http://www.w3.org/2000/svg">
<path d="M16.0336 6.45215C14.1756 6.45215 12.3593 7.00311 10.8145 8.03535C9.26959 9.0676 8.06552 10.5348 7.3545 12.2513C6.64347 13.9679 6.45744 15.8567 6.81992 17.679C7.18239 19.5013 8.0771 21.1752 9.3909 22.489C10.7047 23.8028 12.3786 24.6975 14.2009 25.06C16.0232 25.4225 17.912 25.2364 19.6286 24.5254C21.3451 23.8144 22.8123 22.6103 23.8446 21.0655C24.8768 19.5206 25.4278 17.7043 25.4278 15.8463C25.4278 13.3548 24.438 10.9654 22.6763 9.20364C20.9145 7.44189 18.5251 6.45215 16.0336 6.45215V6.45215ZM16.0336 8.08759C17.747 8.08845 19.4115 8.6593 20.7648 9.71022C19.7343 10.9916 18.3898 11.9845 16.862 12.5925C16.0512 11.1075 15.1381 9.68066 14.1291 8.32245C14.7514 8.16384 15.3914 8.08492 16.0336 8.08759V8.08759ZM12.5321 8.94161C13.5554 10.2761 14.4801 11.6832 15.2991 13.1519C13.0834 13.7491 10.7957 14.0365 8.50116 14.0059C8.76854 12.9201 9.26709 11.9048 9.96275 11.0294C10.6584 10.1539 11.5348 9.43885 12.5321 8.93306V8.94161ZM8.26204 15.8549C8.26204 15.7908 8.26204 15.7225 8.26204 15.6584C10.8957 15.7066 13.5215 15.3568 16.0507 14.6208C16.2343 14.9923 16.4094 15.3681 16.5759 15.7438C13.8703 16.6135 11.5583 18.4099 10.0469 20.8167C8.89053 19.4193 8.26181 17.6601 8.27057 15.8463L8.26204 15.8549ZM16.0336 23.6051C14.3062 23.6041 12.6287 23.0254 11.2682 21.9611C12.8097 19.5399 14.7782 17.9686 17.2164 17.2384C17.9401 19.1284 18.4765 21.085 18.8177 23.0798C17.9305 23.4268 16.9862 23.6049 16.0336 23.6051V23.6051ZM20.3421 22.2941C19.9976 20.4551 19.4947 18.6492 18.839 16.8968C20.454 16.6938 22.0909 16.7456 23.6898 17.0505C23.5241 18.1089 23.1411 19.1215 22.565 20.0247C21.9889 20.9279 21.232 21.702 20.3421 22.2984V22.2941ZM18.2071 15.351C18.0149 14.924 17.8185 14.4671 17.605 14.0358C19.2943 13.3424 20.7872 12.244 21.9519 10.8375C23.0367 12.1232 23.6736 13.7269 23.7667 15.4065C21.9308 15.0794 20.053 15.062 18.2113 15.3553L18.2071 15.351Z" fill="#323232"/>
<path d="M16.2002 0C13.0357 0 9.94226 0.938384 7.31108 2.69649C4.67989 4.45459 2.62913 6.95344 1.41813 9.87706C0.207129 12.8007 -0.109726 16.0177 0.507637 19.1214C1.125 22.2251 2.64886 25.0761 4.8865 27.3137C7.12414 29.5513 9.97506 31.0752 13.0788 31.6925C16.1825 32.3099 19.3995 31.9931 22.3231 30.7821C25.2467 29.5711 27.7456 27.5203 29.5037 24.8891C31.2618 22.2579 32.2002 19.1645 32.2002 16C32.1957 11.7579 30.5085 7.69088 27.5089 4.69128C24.5093 1.69168 20.4423 0.00452127 16.2002 0V0ZM16.2002 29.9461C13.4409 29.9461 10.7436 29.1278 8.44935 27.5947C6.15514 26.0616 4.36709 23.8827 3.31134 21.3333C2.2556 18.784 1.97959 15.9788 2.51821 13.2726C3.05683 10.5664 4.3859 8.08065 6.33732 6.12982C8.28874 4.179 10.7749 2.85069 13.4812 2.3129C16.1876 1.7751 18.9927 2.05198 21.5417 3.1085C24.0907 4.16503 26.2692 5.95375 27.8016 8.24843C29.3339 10.5431 30.1514 13.2407 30.1506 16C30.146 19.6981 28.6747 23.2433 26.0593 25.8579C23.444 28.4724 19.8983 29.9427 16.2002 29.9461V29.9461Z" fill="#323232"/>
</svg>
