<svg width="33" height="32" viewBox="0 0 33 32" fill="none" xmlns="http://www.w3.org/2000/svg">
<path d="M14.124 20.8552C14.5157 20.7796 14.887 20.6223 15.2137 20.3935C15.5404 20.1646 15.8151 19.8694 16.02 19.5272C16.3297 19.0338 16.4899 18.4613 16.4811 17.8789C16.4957 17.3469 16.3563 16.822 16.0797 16.3673C15.7945 15.9404 15.3754 15.6204 14.8884 15.4578C15.188 15.3174 15.4554 15.1168 15.6741 14.8685C16.0102 14.4369 16.1799 13.8989 16.1523 13.3526C16.1684 12.79 16.0022 12.2373 15.6783 11.777C15.1546 11.0653 14.2635 10.6981 13.0053 10.6753H8.01782V20.9961H12.6765C13.1625 20.9987 13.6476 20.9515 14.124 20.8552V20.8552ZM10.076 12.4687H12.3178C12.7309 12.458 13.1431 12.5127 13.539 12.631C13.7217 12.7088 13.8745 12.8435 13.9745 13.0151C14.0745 13.1866 14.1165 13.3859 14.0942 13.5832C14.1111 13.7586 14.0804 13.9353 14.0053 14.0946C13.9301 14.254 13.8133 14.39 13.6671 14.4885C13.3331 14.6723 12.955 14.7609 12.574 14.7447H10.0675L10.076 12.4687ZM10.076 19.2026V16.4527H12.6124C12.9652 16.4409 13.3166 16.5005 13.6458 16.6278C13.8571 16.7205 14.0341 16.877 14.152 17.0753C14.2699 17.2736 14.3228 17.5038 14.3034 17.7337C14.3329 17.9909 14.2838 18.2509 14.1626 18.4795C14.0414 18.7082 13.8538 18.8948 13.6244 19.0148C13.2929 19.1498 12.9359 19.211 12.5783 19.1941L10.076 19.2026Z" fill="#323232"/>
<path d="M18.2276 20.3166C18.9867 20.9351 19.9387 21.2676 20.9178 21.256C21.448 21.287 21.9787 21.2035 22.4738 21.0112C22.969 20.8189 23.4169 20.5223 23.7873 20.1416C24.1766 19.7741 24.4358 19.29 24.526 18.7623H22.4977C22.3908 18.9634 22.2458 19.1418 22.0707 19.2875C21.753 19.5307 21.3601 19.6546 20.9605 19.6377C20.575 19.6474 20.1947 19.5483 19.8631 19.3516C19.6028 19.1735 19.3927 18.9315 19.2529 18.6489C19.1131 18.3662 19.0482 18.0524 19.0646 17.7375H24.6157C24.6327 17.2326 24.6099 16.7272 24.5473 16.2259C24.4683 15.6599 24.2609 15.1195 23.941 14.646C23.6173 14.1524 23.1596 13.7614 22.6215 13.5187C22.056 13.273 21.4446 13.1507 20.8281 13.16C20.325 13.1405 19.8233 13.2244 19.354 13.4066C18.8847 13.5887 18.4577 13.8652 18.0995 14.219C17.3992 14.9235 17.0491 15.927 17.0491 17.2593C17.0662 18.6727 17.4505 19.6889 18.2276 20.3166ZM19.6538 15.2438C19.8124 15.0946 20 14.9796 20.205 14.9061C20.41 14.8327 20.6279 14.8023 20.8452 14.8168C21.2787 14.8077 21.7002 14.9599 22.028 15.2438C22.1944 15.3975 22.3275 15.5836 22.4193 15.7907C22.5111 15.9978 22.5596 16.2214 22.5617 16.4479H19.1457C19.1785 16.0017 19.357 15.5786 19.6538 15.2438V15.2438Z" fill="#323232"/>
<path d="M22.9548 11.2686H18.4712V12.3105H22.9548V11.2686Z" fill="#323232"/>
<path d="M16.4001 0C13.2356 0 10.1422 0.938377 7.51102 2.69648C4.87984 4.45458 2.82908 6.95345 1.61808 9.87706C0.407081 12.8007 0.0902253 16.0177 0.707589 19.1214C1.32495 22.2251 2.8488 25.0761 5.08644 27.3137C7.32408 29.5513 10.175 31.0752 13.2787 31.6926C16.3824 32.3099 19.5995 31.9931 22.5231 30.7821C25.4467 29.5711 27.9455 27.5203 29.7037 24.8891C31.4618 22.2579 32.4001 19.1645 32.4001 16C32.3956 11.7579 30.7085 7.69088 27.7089 4.69128C24.7093 1.69168 20.6422 0.00452127 16.4001 0V0ZM16.4001 29.9504C13.641 29.9504 10.9439 29.1322 8.64975 27.5993C6.35562 26.0664 4.56757 23.8877 3.51171 21.3386C2.45584 18.7895 2.17956 15.9845 2.71784 13.2784C3.25612 10.5723 4.58477 8.0866 6.53576 6.13561C8.48676 4.18462 10.9725 2.85596 13.6786 2.31769C16.3847 1.77941 19.1896 2.05568 21.7387 3.11155C24.2878 4.16742 26.4666 5.95547 27.9995 8.24959C29.5323 10.5437 30.3505 13.2409 30.3505 16C30.3449 19.6973 28.873 23.2415 26.2578 25.8551C23.6426 28.4687 20.0975 29.9384 16.4001 29.9418V29.9504Z" fill="#323232"/>
</svg>
