<svg width="32" height="32" viewBox="0 0 32 32" fill="none" xmlns="http://www.w3.org/2000/svg">
<path d="M16 0C12.8355 0 9.74207 0.938377 7.11088 2.69648C4.4797 4.45458 2.42894 6.95345 1.21793 9.87706C0.00693283 12.8007 -0.309921 16.0177 0.307443 19.1214C0.924806 22.2251 2.44866 25.0761 4.6863 27.3137C6.92394 29.5513 9.77486 31.0752 12.8786 31.6926C15.9823 32.3099 19.1993 31.9931 22.1229 30.7821C25.0466 29.5711 27.5454 27.5203 29.3035 24.8891C31.0616 22.2579 32 19.1645 32 16C31.9955 11.7579 30.3083 7.69088 27.3087 4.69128C24.3091 1.69168 20.2421 0.00452127 16 0V0ZM16 29.9503C13.2407 29.9512 10.5431 29.1337 8.24843 27.6014C5.95375 26.069 4.16503 23.8905 3.10851 21.3415C2.05198 18.7925 1.77511 15.9874 2.31291 13.281C2.8507 10.5747 4.17901 8.08853 6.12983 6.13711C8.08065 4.18569 10.5664 2.85662 13.2726 2.318C15.9788 1.77938 18.784 2.05539 21.3333 3.11113C23.8827 4.16688 26.0617 5.95493 27.5947 8.24915C29.1278 10.5434 29.9461 13.2407 29.9461 16C29.9416 19.6977 28.4709 23.2428 25.8566 25.8579C23.2423 28.473 19.6977 29.9447 16 29.9503V29.9503Z" fill="#323232"/>
<path d="M11.5893 11.2002C14.4554 11.2002 16.7786 13.5076 16.7786 16.3537C16.7786 19.1998 14.4552 21.507 11.5893 21.507C8.72346 21.507 6.3999 19.1998 6.3999 16.3537C6.3999 13.5076 8.72328 11.2002 11.5893 11.2002ZM19.8765 11.5021C21.3095 11.5021 22.4712 13.674 22.4712 16.3537H22.4714C22.4714 19.0327 21.3097 21.2053 19.8767 21.2053C18.4437 21.2053 17.282 19.0327 17.282 16.3537C17.282 13.6747 18.4435 11.5021 19.8765 11.5021ZM23.8873 12.0074C24.3912 12.0074 24.7999 13.9533 24.7999 16.3537C24.7999 18.7534 24.3914 20.6999 23.8873 20.6999C23.3833 20.6999 22.9749 18.7539 22.9749 16.3537C22.9749 13.9534 23.3834 12.0074 23.8873 12.0074Z" fill="#323232"/>
</svg>
