<svg width="40" height="41" viewBox="0 0 40 41" fill="none" xmlns="http://www.w3.org/2000/svg">
<path d="M11.0862 14.9707H14.9079V27.2472H11.0862V14.9707ZM12.9971 8.8645C13.4352 8.86556 13.8631 8.9965 14.2268 9.24078C14.5905 9.48506 14.8736 9.8317 15.0402 10.2369C15.2069 10.642 15.2497 11.0875 15.1632 11.517C15.0767 11.9465 14.8648 12.3407 14.5543 12.6497C14.2437 12.9587 13.8485 13.1687 13.4186 13.2532C12.9887 13.3376 12.5435 13.2927 12.1391 13.124C11.7348 12.9554 11.3895 12.6707 11.147 12.3058C10.9044 11.941 10.7756 11.5124 10.7766 11.0743C10.778 10.4877 11.012 9.92567 11.4273 9.51141C11.8426 9.09715 12.4052 8.8645 12.9917 8.8645H12.9971ZM17.2992 27.2579H21.1209V21.1784C21.1209 19.5771 21.4251 18.0238 23.4107 18.0238C25.3963 18.0238 25.3963 19.86 25.3963 21.2851V27.2579H29.2127V20.5218C29.2127 17.2072 28.5028 14.6505 24.633 14.6505C23.9055 14.6269 23.1853 14.8012 22.5489 15.1546C21.9126 15.508 21.384 16.0274 21.0195 16.6574H20.9714V14.9761H17.3045L17.2992 27.2579Z" fill="#EDE9F0"/>
<path d="M20 0.11084C16.0444 0.11084 12.1776 1.28381 8.8886 3.48144C5.59962 5.67907 3.03617 8.80265 1.52242 12.4572C0.00866604 16.1117 -0.387401 20.133 0.384303 24.0126C1.15601 27.8923 3.06082 31.4559 5.85787 34.253C8.65492 37.05 12.2186 38.9548 16.0982 39.7265C19.9778 40.4982 23.9991 40.1022 27.6537 38.5884C31.3082 37.0747 34.4318 34.5112 36.6294 31.2222C38.827 27.9333 40 24.0665 40 20.1108C39.9943 14.8082 37.8854 9.72444 34.1359 5.97494C30.3864 2.22544 25.3026 0.116491 20 0.11084V0.11084ZM20 37.5488C16.5509 37.5498 13.1789 36.528 10.3105 34.6126C7.44219 32.6971 5.20629 29.974 3.88564 26.7877C2.56498 23.6015 2.21889 20.0951 2.89113 16.7121C3.56338 13.3292 5.22376 10.2215 7.66229 7.78223C10.1008 5.34295 13.208 3.68162 16.5907 3.00834C19.9735 2.33506 23.48 2.68008 26.6666 3.99976C29.8533 5.31944 32.5771 7.55451 34.4934 10.4223C36.4098 13.29 37.4326 16.6617 37.4326 20.1108C37.4241 24.7312 35.5846 29.1597 32.317 32.4263C29.0495 35.6929 24.6203 37.531 20 37.5381V37.5488Z" fill="#EDE9F0"/>
</svg>
