<svg width="40" height="41" viewBox="0 0 40 41" fill="none" xmlns="http://www.w3.org/2000/svg">
<path d="M11.0862 15.6109H14.9079V27.8873H11.0862V15.6109ZM12.9971 9.50464C13.4352 9.5057 13.8631 9.63664 14.2268 9.88092C14.5905 10.1252 14.8736 10.4718 15.0402 10.877C15.2069 11.2822 15.2497 11.7276 15.1632 12.1571C15.0767 12.5866 14.8648 12.9808 14.5543 13.2898C14.2437 13.5989 13.8485 13.8089 13.4186 13.8933C12.9887 13.9778 12.5435 13.9328 12.1391 13.7642C11.7348 13.5956 11.3895 13.3108 11.147 12.9459C10.9044 12.5811 10.7756 12.1525 10.7766 11.7144C10.778 11.1279 11.012 10.5658 11.4273 10.1515C11.8426 9.73728 12.4052 9.50464 12.9917 9.50464H12.9971ZM17.2992 27.898H21.1209V21.8185C21.1209 20.2172 21.4251 18.664 23.4107 18.664C25.3963 18.664 25.3963 20.5001 25.3963 21.9252V27.898H29.2127V21.162C29.2127 17.8473 28.5028 15.2906 24.633 15.2906C23.9055 15.2671 23.1853 15.4413 22.5489 15.7947C21.9126 16.1481 21.384 16.6675 21.0195 17.2975H20.9714V15.6162H17.3045L17.2992 27.898Z" fill="#323232"/>
<path d="M20 0.750977C16.0444 0.750977 12.1776 1.92395 8.8886 4.12158C5.59962 6.3192 3.03617 9.44279 1.52242 13.0973C0.00866604 16.7518 -0.387401 20.7732 0.384303 24.6528C1.15601 28.5324 3.06082 32.0961 5.85787 34.8931C8.65492 37.6902 12.2186 39.595 16.0982 40.3667C19.9778 41.1384 23.9991 40.7423 27.6537 39.2286C31.3082 37.7148 34.4318 35.1514 36.6294 31.8624C38.827 28.5734 40 24.7066 40 20.751C39.9943 15.4484 37.8854 10.3646 34.1359 6.61507C30.3864 2.86557 25.3026 0.756628 20 0.750977ZM20 38.1889C16.5509 38.19 13.1789 37.1682 10.3105 35.2527C7.44219 33.3372 5.20629 30.6142 3.88564 27.4279C2.56498 24.2416 2.21889 20.7353 2.89113 17.3523C3.56338 13.9693 5.22376 10.8616 7.66229 8.42236C10.1008 5.98309 13.208 4.32176 16.5907 3.64848C19.9735 2.9752 23.48 3.32021 26.6666 4.63989C29.8533 5.95957 32.5771 8.19464 34.4934 11.0624C36.4098 13.9302 37.4326 17.3018 37.4326 20.751C37.4241 25.3713 35.5846 29.7999 32.317 33.0664C29.0495 36.333 24.6203 38.1712 20 38.1782V38.1889Z" fill="#323232"/>
</svg>
