<svg width="40" height="41" viewBox="0 0 40 41" fill="none" xmlns="http://www.w3.org/2000/svg">
<path d="M20 0.36084C16.0444 0.36084 12.1776 1.53381 8.8886 3.73144C5.59962 5.92907 3.03617 9.05265 1.52242 12.7072C0.00866604 16.3617 -0.387401 20.383 0.384303 24.2626C1.15601 28.1423 3.06082 31.7059 5.85787 34.503C8.65492 37.3 12.2186 39.2048 16.0982 39.9765C19.9778 40.7482 23.9991 40.3522 27.6537 38.8384C31.3082 37.3247 34.4318 34.7612 36.6294 31.4722C38.827 28.1832 40 24.3165 40 20.3608C39.9943 15.0582 37.8854 9.97444 34.1359 6.22494C30.3864 2.47544 25.3026 0.366491 20 0.36084ZM20 37.7988C16.5509 37.7998 13.1789 36.778 10.3105 34.8626C7.44219 32.9471 5.20629 30.224 3.88564 27.0377C2.56498 23.8515 2.21889 20.3451 2.89113 16.9621C3.56338 13.5792 5.22376 10.4715 7.66229 8.03223C10.1008 5.59295 13.208 3.93162 16.5907 3.25834C19.9735 2.58506 23.48 2.93008 26.6666 4.24976C29.8533 5.56944 32.5771 7.80451 34.4934 10.6723C36.4098 13.54 37.4326 16.9117 37.4326 20.3608C37.427 24.983 35.5887 29.4143 32.3208 32.6832C29.0529 35.9521 24.6222 37.7917 20 37.7988Z" fill="#323232"/>
<path d="M14.4868 14.3608C18.0694 14.3608 20.9734 17.2451 20.9734 20.8027C20.9734 24.3603 18.0692 27.2443 14.4868 27.2443C10.9044 27.2443 8 24.3603 8 20.8027C8 17.2451 10.9042 14.3608 14.4868 14.3608ZM24.8458 14.7382C26.637 14.7382 28.0892 17.4531 28.0892 20.8027H28.0894C28.0894 24.1514 26.6373 26.8672 24.846 26.8672C23.0547 26.8672 21.6026 24.1514 21.6026 20.8027C21.6026 17.454 23.0545 14.7382 24.8458 14.7382ZM29.8593 15.3699C30.4891 15.3699 31 17.8022 31 20.8027C31 23.8023 30.4894 26.2355 29.8593 26.2355C29.2292 26.2355 28.7188 23.803 28.7188 20.8027C28.7188 17.8024 29.2294 15.3699 29.8593 15.3699Z" fill="#323232"/>
</svg>
