<svg width="41" height="41" viewBox="0 0 41 41" fill="none" xmlns="http://www.w3.org/2000/svg">
<path d="M30.9148 14.4085C30.2413 14.6931 29.5348 14.8922 28.8118 15.001C29.1481 14.9476 29.6284 14.3391 29.8259 14.0936C30.1311 13.7197 30.3645 13.2926 30.5145 12.8339C30.5145 12.7966 30.5412 12.7539 30.5145 12.7272C30.4973 12.7178 30.478 12.7129 30.4584 12.7129C30.4389 12.7129 30.4196 12.7178 30.4024 12.7272C29.6227 13.1429 28.7943 13.4603 27.9364 13.6719C27.9064 13.6817 27.8741 13.6823 27.8438 13.6737C27.8134 13.6652 27.7862 13.6478 27.7656 13.6239C27.6981 13.5457 27.6249 13.4726 27.5468 13.4051C27.1916 13.0966 26.7875 12.8495 26.3512 12.6738C25.7715 12.4365 25.1454 12.3343 24.5204 12.3749C23.9131 12.419 23.3211 12.5861 22.7803 12.866C22.2403 13.1507 21.763 13.541 21.3765 14.0135C20.9778 14.5061 20.6917 15.08 20.5385 15.6949C20.4069 16.2769 20.3924 16.8793 20.4958 17.467C20.4958 17.563 20.4958 17.5791 20.4104 17.563C17.021 17.0613 14.2081 15.8443 11.929 13.2449C11.8275 13.1328 11.7742 13.1328 11.6941 13.2449C10.696 14.7395 11.1603 17.1467 12.4254 18.3263C12.5962 18.4811 12.767 18.6412 12.9591 18.7854C12.3881 18.7414 11.8312 18.5855 11.3205 18.3263C11.2244 18.2623 11.1764 18.3263 11.1657 18.4117C11.159 18.5741 11.168 18.7368 11.1924 18.8974C11.292 19.6597 11.5913 20.382 12.0599 20.9913C12.5286 21.6005 13.15 22.0751 13.8612 22.3669C14.0328 22.4406 14.2117 22.496 14.3949 22.5324C13.8674 22.6359 13.3264 22.6521 12.7936 22.5804C12.6762 22.5804 12.6335 22.6178 12.6762 22.7298C13.3861 24.6514 14.9073 25.2278 16.0496 25.5534C16.2044 25.5801 16.3538 25.5801 16.5086 25.6175C16.5086 25.6175 16.5086 25.6175 16.5086 25.6442C16.1296 26.2206 14.8166 26.6476 14.2081 26.8611C13.0871 27.2619 11.8925 27.4149 10.7066 27.3095C10.5198 27.2828 10.4825 27.2828 10.4291 27.3095C10.3757 27.3362 10.4291 27.3896 10.4825 27.4376C10.7227 27.5924 10.9629 27.7312 11.2137 27.87C11.956 28.2669 12.7401 28.5801 13.5516 28.804C17.7523 29.9623 22.4867 29.1136 25.6413 25.9751C28.1179 23.5145 28.9879 20.1037 28.9879 16.7197C28.9879 16.5863 29.1427 16.5169 29.2388 16.4421C29.8784 15.9565 30.4446 15.3813 30.9201 14.7341C30.9977 14.6391 31.0475 14.5246 31.0643 14.4032V14.4032C31.0322 14.3551 30.9949 14.3712 30.9148 14.4085Z" fill="#323232"/>
<path d="M20.72 0.851074C16.7644 0.851074 12.8976 2.02405 9.60858 4.22168C6.31959 6.41931 3.75614 9.54288 2.24239 13.1974C0.728638 16.8519 0.332569 20.8733 1.10427 24.7529C1.87598 28.6325 3.7808 32.1962 6.57785 34.9932C9.3749 37.7903 12.9386 39.6951 16.8182 40.4668C20.6978 41.2385 24.7191 40.8424 28.3736 39.3287C32.0282 37.8149 35.1517 35.2515 37.3494 31.9625C39.547 28.6735 40.72 24.8067 40.72 20.8511C40.7143 15.5485 38.6054 10.4647 34.8559 6.71518C31.1064 2.96568 26.0226 0.856726 20.72 0.851074V0.851074ZM20.72 38.2837C17.2708 38.2837 13.8992 37.2608 11.0314 35.3445C8.16365 33.4281 5.92859 30.7044 4.60891 27.5177C3.28923 24.331 2.94421 20.8246 3.61749 17.4418C4.29077 14.059 5.9521 10.9519 8.39138 8.51335C10.8306 6.07483 13.9383 4.41444 17.3213 3.7422C20.7043 3.06996 24.2106 3.41605 27.3969 4.73671C30.5832 6.05736 33.3062 8.29325 35.2217 11.1616C37.1372 14.03 38.159 17.4019 38.1579 20.8511C38.1523 25.4737 36.3131 29.9053 33.0439 33.1734C29.7747 36.4416 25.3426 38.2794 20.72 38.2837V38.2837Z" fill="#323232"/>
</svg>
