<svg width="41" height="41" viewBox="0 0 41 41" fill="none" xmlns="http://www.w3.org/2000/svg">
<path d="M30.9148 13.7684C30.2413 14.053 29.5348 14.252 28.8118 14.3609C29.1481 14.3075 29.6284 13.699 29.8259 13.4535C30.1311 13.0796 30.3645 12.6525 30.5145 12.1938C30.5145 12.1564 30.5412 12.1137 30.5145 12.087C30.4973 12.0777 30.478 12.0728 30.4584 12.0728C30.4389 12.0728 30.4196 12.0777 30.4024 12.087C29.6227 12.5028 28.7943 12.8202 27.9364 13.0318C27.9064 13.0415 27.8741 13.0421 27.8438 13.0336C27.8134 13.0251 27.7862 13.0077 27.7656 12.9838C27.6981 12.9056 27.6249 12.8325 27.5468 12.7649C27.1916 12.4565 26.7875 12.2094 26.3512 12.0337C25.7715 11.7964 25.1454 11.6941 24.5204 11.7348C23.9131 11.7789 23.3211 11.9459 22.7803 12.2258C22.2403 12.5106 21.763 12.9008 21.3765 13.3734C20.9778 13.8659 20.6917 14.4398 20.5385 15.0548C20.4069 15.6368 20.3924 16.2392 20.4958 16.8268C20.4958 16.9229 20.4958 16.9389 20.4104 16.9229C17.021 16.4212 14.2081 15.2042 11.929 12.6048C11.8275 12.4927 11.7742 12.4927 11.6941 12.6048C10.696 14.0993 11.1603 16.5066 12.4254 17.6862C12.5962 17.841 12.767 18.0011 12.9591 18.1452C12.3881 18.1013 11.8312 17.9453 11.3205 17.6862C11.2244 17.6221 11.1764 17.6862 11.1657 17.7716C11.159 17.934 11.168 18.0966 11.1924 18.2573C11.292 19.0195 11.5913 19.7419 12.0599 20.3511C12.5286 20.9604 13.15 21.435 13.8612 21.7268C14.0328 21.8004 14.2117 21.8559 14.3949 21.8922C13.8674 21.9958 13.3264 22.012 12.7936 21.9403C12.6762 21.9403 12.6335 21.9776 12.6762 22.0897C13.3861 24.0112 14.9073 24.5877 16.0496 24.9133C16.2044 24.94 16.3538 24.94 16.5086 24.9774C16.5086 24.9774 16.5086 24.9774 16.5086 25.004C16.1296 25.5805 14.8166 26.0075 14.2081 26.221C13.0871 26.6218 11.8925 26.7747 10.7066 26.6694C10.5198 26.6427 10.4825 26.6427 10.4291 26.6694C10.3757 26.6961 10.4291 26.7494 10.4825 26.7975C10.7227 26.9523 10.9629 27.091 11.2137 27.2298C11.956 27.6267 12.7401 27.94 13.5516 28.1639C17.7523 29.3222 22.4867 28.4735 25.6413 25.335C28.1179 22.8743 28.9879 19.4636 28.9879 16.0796C28.9879 15.9461 29.1427 15.8767 29.2388 15.802C29.8784 15.3164 30.4446 14.7411 30.9201 14.094C30.9977 13.999 31.0475 13.8845 31.0643 13.763V13.763C31.0322 13.715 30.9949 13.731 30.9148 13.7684Z" fill="#EDE9F0"/>
<path d="M20.72 0.210938C16.7644 0.210938 12.8976 1.38392 9.60858 3.58154C6.31959 5.77917 3.75614 8.90274 2.24239 12.5573C0.728638 16.2118 0.332569 20.2331 1.10427 24.1127C1.87598 27.9924 3.7808 31.556 6.57785 34.3531C9.3749 37.1501 12.9386 39.0549 16.8182 39.8266C20.6978 40.5983 24.7191 40.2023 28.3736 38.6885C32.0282 37.1748 35.1517 34.6113 37.3494 31.3223C39.547 28.0334 40.72 24.1666 40.72 20.2109C40.7143 14.9083 38.6054 9.82454 34.8559 6.07504C31.1064 2.32554 26.0226 0.216589 20.72 0.210938V0.210938ZM20.72 37.6435C17.2708 37.6435 13.8992 36.6207 11.0314 34.7043C8.16365 32.788 5.92859 30.0643 4.60891 26.8776C3.28923 23.6909 2.94421 20.1844 3.61749 16.8017C4.29077 13.4189 5.9521 10.3117 8.39138 7.87322C10.8306 5.43469 13.9383 3.77431 17.3213 3.10206C20.7043 2.42982 24.2106 2.77591 27.3969 4.09657C30.5832 5.41722 33.3062 7.65312 35.2217 10.5215C37.1372 13.3898 38.159 16.7618 38.1579 20.2109C38.1523 24.8335 36.3131 29.2651 33.0439 32.5333C29.7747 35.8015 25.3426 37.6393 20.72 37.6435V37.6435Z" fill="#EDE9F0"/>
</svg>
